<svg width="69" height="19" viewBox="0 0 69 19" fill="none" xmlns="http://www.w3.org/2000/svg">
<path d="M0.184 18V1.2H3.784V14.76H11.392V18H0.184ZM21.7339 18.24C20.4859 18.24 19.3419 18.024 18.3019 17.592C17.2619 17.16 16.3499 16.56 15.5659 15.792C14.7979 15.008 14.2059 14.088 13.7899 13.032C13.3739 11.96 13.1659 10.8 13.1659 9.552C13.1659 8.288 13.3739 7.128 13.7899 6.072C14.2059 5.016 14.7979 4.104 15.5659 3.336C16.3499 2.552 17.2619 1.944 18.3019 1.512C19.3419 1.08 20.4779 0.863999 21.7099 0.863999C22.9579 0.863999 24.0939 1.08 25.1179 1.512C26.1579 1.944 27.0619 2.552 27.8299 3.336C28.6139 4.12 29.2139 5.04 29.6299 6.096C30.0459 7.152 30.2539 8.304 30.2539 9.552C30.2539 10.8 30.0459 11.952 29.6299 13.008C29.2139 14.064 28.6139 14.984 27.8299 15.768C27.0619 16.552 26.1579 17.16 25.1179 17.592C24.0939 18.024 22.9659 18.24 21.7339 18.24ZM21.7099 14.832C22.4299 14.832 23.0859 14.704 23.6779 14.448C24.2699 14.176 24.7819 13.808 25.2139 13.344C25.6459 12.864 25.9819 12.304 26.2219 11.664C26.4779 11.024 26.6059 10.32 26.6059 9.552C26.6059 8.784 26.4779 8.08 26.2219 7.44C25.9819 6.8 25.6459 6.248 25.2139 5.784C24.7819 5.304 24.2699 4.936 23.6779 4.68C23.0859 4.408 22.4299 4.272 21.7099 4.272C21.0059 4.272 20.3579 4.408 19.7659 4.68C19.1739 4.936 18.6539 5.304 18.2059 5.784C17.7579 6.248 17.4139 6.8 17.1739 7.44C16.9499 8.08 16.8379 8.784 16.8379 9.552C16.8379 10.32 16.9499 11.024 17.1739 11.664C17.4139 12.304 17.7579 12.864 18.2059 13.344C18.6539 13.808 19.1739 14.176 19.7659 14.448C20.3579 14.704 21.0059 14.832 21.7099 14.832ZM41.2161 18.24C39.9201 18.24 38.7281 18.024 37.6401 17.592C36.5681 17.144 35.6401 16.528 34.8561 15.744C34.0721 14.96 33.4641 14.04 33.0321 12.984C32.6161 11.928 32.4081 10.784 32.4081 9.552C32.4081 8.32 32.6241 7.184 33.0561 6.144C33.5041 5.088 34.1281 4.176 34.9281 3.408C35.7441 2.624 36.6961 2.016 37.7841 1.584C38.8721 1.152 40.0641 0.935999 41.3601 0.935999C42.2561 0.935999 43.1121 1.056 43.9281 1.296C44.7441 1.536 45.4881 1.864 46.1601 2.28C46.8321 2.696 47.3921 3.176 47.8401 3.72L45.6081 6.072C45.1921 5.672 44.7601 5.336 44.3121 5.064C43.8641 4.776 43.3841 4.56 42.8721 4.416C42.3761 4.256 41.8641 4.176 41.3361 4.176C40.5841 4.176 39.8881 4.312 39.2481 4.584C38.6241 4.856 38.0721 5.232 37.5921 5.712C37.1121 6.192 36.7361 6.76 36.4641 7.416C36.2081 8.072 36.0801 8.784 36.0801 9.552C36.0801 10.304 36.2161 11.016 36.4881 11.688C36.7761 12.344 37.1601 12.92 37.6401 13.416C38.1361 13.896 38.7121 14.28 39.3681 14.568C40.0241 14.84 40.7281 14.976 41.4801 14.976C42.0241 14.976 42.5281 14.896 42.9921 14.736C43.4721 14.576 43.8881 14.352 44.2401 14.064C44.6081 13.76 44.8881 13.408 45.0801 13.008C45.2881 12.608 45.3921 12.184 45.3921 11.736V11.16L45.8721 11.832H41.0721V8.832H48.8481C48.8641 9.008 48.8801 9.224 48.8961 9.48C48.9281 9.736 48.9441 9.992 48.9441 10.248C48.9601 10.488 48.9681 10.68 48.9681 10.824C48.9681 11.912 48.7681 12.912 48.3681 13.824C47.9841 14.736 47.4401 15.52 46.7361 16.176C46.0481 16.832 45.2321 17.344 44.2881 17.712C43.3441 18.064 42.3201 18.24 41.2161 18.24ZM59.6324 18.24C58.3844 18.24 57.2404 18.024 56.2004 17.592C55.1604 17.16 54.2484 16.56 53.4644 15.792C52.6964 15.008 52.1044 14.088 51.6884 13.032C51.2724 11.96 51.0644 10.8 51.0644 9.552C51.0644 8.288 51.2724 7.128 51.6884 6.072C52.1044 5.016 52.6964 4.104 53.4644 3.336C54.2484 2.552 55.1604 1.944 56.2004 1.512C57.2404 1.08 58.3764 0.863999 59.6084 0.863999C60.8564 0.863999 61.9924 1.08 63.0164 1.512C64.0564 1.944 64.9604 2.552 65.7284 3.336C66.5124 4.12 67.1124 5.04 67.5284 6.096C67.9444 7.152 68.1524 8.304 68.1524 9.552C68.1524 10.8 67.9444 11.952 67.5284 13.008C67.1124 14.064 66.5124 14.984 65.7284 15.768C64.9604 16.552 64.0564 17.16 63.0164 17.592C61.9924 18.024 60.8644 18.24 59.6324 18.24ZM59.6084 14.832C60.3284 14.832 60.9844 14.704 61.5764 14.448C62.1684 14.176 62.6804 13.808 63.1124 13.344C63.5444 12.864 63.8804 12.304 64.1204 11.664C64.3764 11.024 64.5044 10.32 64.5044 9.552C64.5044 8.784 64.3764 8.08 64.1204 7.44C63.8804 6.8 63.5444 6.248 63.1124 5.784C62.6804 5.304 62.1684 4.936 61.5764 4.68C60.9844 4.408 60.3284 4.272 59.6084 4.272C58.9044 4.272 58.2564 4.408 57.6644 4.68C57.0724 4.936 56.5524 5.304 56.1044 5.784C55.6564 6.248 55.3124 6.8 55.0724 7.44C54.8484 8.08 54.7364 8.784 54.7364 9.552C54.7364 10.32 54.8484 11.024 55.0724 11.664C55.3124 12.304 55.6564 12.864 56.1044 13.344C56.5524 13.808 57.0724 14.176 57.6644 14.448C58.2564 14.704 58.9044 14.832 59.6084 14.832Z" fill="#FF4E6B"/>
</svg>
